<svg xmlns="http://www.w3.org/2000/svg" viewBox="0 0 512 512" width="512" height="512">
  <!-- Green rounded background matching the navbar brand pill -->
  <rect width="512" height="512" rx="96" fill="#16a34a"/>
  <!-- Lucide QrCode icon (v0.469.0) scaled to 280×280, centered -->
  <g transform="translate(116, 116) scale(11.667)"
     stroke="white"
     fill="none"
     stroke-width="2"
     stroke-linecap="round"
     stroke-linejoin="round">
    <rect width="5" height="5" x="3" y="3" rx="1"/>
    <rect width="5" height="5" x="16" y="3" rx="1"/>
    <rect width="5" height="5" x="3" y="16" rx="1"/>
    <path d="M21 16h-3a2 2 0 0 0-2 2v3"/>
    <path d="M21 21v.01"/>
    <path d="M12 7v3a2 2 0 0 1-2 2H7"/>
    <path d="M3 12h.01"/>
    <path d="M12 3h.01"/>
    <path d="M12 16v.01"/>
    <path d="M16 12h1"/>
    <path d="M21 12v.01"/>
    <path d="M12 21v-1"/>
  </g>
</svg>
